<?xml version="1.0" standalone="no"?>
<!DOCTYPE svg PUBLIC "-//W3C//DTD SVG 20010904//EN"
 "http://www.w3.org/TR/2001/REC-SVG-20010904/DTD/svg10.dtd">
<svg version="1.0" xmlns="http://www.w3.org/2000/svg"
 width="640.000000pt" height="640.000000pt" viewBox="0 0 640.000000 640.000000"
 preserveAspectRatio="xMidYMid meet">
<metadata>
Created by potrace 1.16, written by Peter Selinger 2001-2019
</metadata>
<g transform="translate(0.000000,640.000000) scale(0.100000,-0.100000)"
fill="#000000" stroke="none">
<path d="M2355 6371 c-998 -257 -1790 -968 -2155 -1936 -133 -352 -195 -703
-194 -1105 1 -381 50 -682 167 -1026 164 -480 468 -946 837 -1281 491 -448
1059 -712 1720 -800 177 -23 569 -23 745 1 709 96 1323 400 1812 897 197 201
331 373 463 595 559 939 594 2087 94 3065 -404 790 -1158 1386 -2019 1595 -55
13 -111 24 -125 23 -14 0 24 -12 85 -26 378 -87 761 -258 1084 -486 201 -141
469 -394 624 -587 486 -607 727 -1362 685 -2144 -50 -946 -537 -1832 -1303
-2373 -441 -312 -927 -496 -1465 -554 -140 -16 -478 -16 -618 -1 -716 78
-1339 373 -1849 877 -299 296 -519 620 -681 1000 -268 632 -320 1346 -147
2020 251 976 971 1778 1915 2133 115 43 232 79 385 116 55 14 89 25 75 25 -14
0 -74 -13 -135 -28z"/>
<path d="M3050 6175 l0 -145 45 0 45 0 0 145 0 145 -45 0 -45 0 0 -145z"/>
<path d="M3235 6308 c-7 -23 -22 -263 -16 -269 3 -4 42 -10 86 -13 90 -7 132
7 169 57 29 39 29 135 0 174 -29 39 -57 50 -152 58 -64 5 -83 3 -87 -7z"/>
<path d="M2790 6303 c-33 -12 -60 -47 -60 -77 0 -17 4 -36 8 -42 11 -18 53
-36 107 -48 44 -10 50 -15 50 -36 0 -33 -43 -40 -70 -10 -25 27 -95 29 -95 1
0 -10 11 -30 25 -45 21 -23 32 -26 90 -26 99 0 145 31 145 97 -1 51 -30 74
-122 93 -39 7 -58 16 -58 26 0 24 30 28 65 10 35 -19 86 -18 92 1 3 7 -7 24
-21 38 -21 21 -34 25 -83 24 -32 0 -65 -3 -73 -6z"/>
<path d="M2508 6251 c-59 -14 -110 -29 -114 -33 -3 -4 8 -66 26 -138 36 -146
28 -138 130 -115 143 33 147 34 142 61 -2 13 -8 27 -12 29 -5 3 -40 -2 -79
-12 -39 -9 -72 -15 -75 -12 -2 2 -6 15 -8 28 -3 23 2 26 65 40 65 15 68 17 62
41 -4 14 -8 26 -10 28 -1 2 -30 -4 -64 -13 -66 -17 -81 -14 -81 14 0 14 14 21
58 30 91 20 90 19 84 46 -2 14 -7 27 -11 29 -3 1 -54 -9 -113 -23z"/>
<path d="M3561 6158 c-13 -68 -25 -130 -27 -139 -3 -12 13 -19 83 -32 174 -32
160 -32 166 0 3 15 4 30 2 32 -2 1 -36 9 -76 17 -39 7 -74 15 -76 17 -2 2 1
15 6 29 9 25 9 25 75 13 36 -7 68 -10 71 -7 3 3 5 15 5 28 0 23 -3 24 -92 40
-32 5 -38 10 -38 31 0 21 4 24 23 19 13 -3 48 -8 79 -12 54 -6 55 -6 60 20 6
30 12 27 -117 51 -129 24 -118 33 -144 -107z"/>
<path d="M3876 6079 c-27 -71 -47 -131 -45 -133 2 -2 19 -8 38 -15 41 -13 43
-11 67 67 9 29 20 55 24 57 3 2 17 -36 29 -85 21 -82 26 -90 54 -99 16 -6 35
-11 42 -11 11 0 112 258 104 264 -11 6 -61 26 -69 26 -4 0 -19 -29 -32 -65
-12 -36 -26 -65 -29 -65 -4 0 -17 38 -29 85 -21 76 -26 85 -53 95 -16 5 -35
10 -42 10 -6 0 -33 -59 -59 -131z"/>
<path d="M2141 6149 c-46 -16 -86 -30 -88 -32 -3 -3 85 -257 92 -265 5 -5 85
21 85 27 0 3 -9 30 -20 59 -20 52 -20 52 0 52 10 0 34 -12 52 -28 66 -55 63
-54 107 -41 23 7 41 15 41 19 0 10 -62 66 -88 79 -21 11 -21 14 -7 34 22 32
19 74 -10 102 -31 32 -59 31 -164 -6z"/>
<path d="M4241 6063 c-12 -26 -4 -42 24 -43 6 0 18 -7 28 -14 17 -13 16 -18
-18 -86 -61 -121 -60 -117 -15 -140 l39 -20 45 95 c25 52 50 95 56 95 6 0 26
-7 45 -14 35 -15 35 -15 51 15 8 17 14 32 12 33 -12 10 -231 106 -242 106 -7
0 -18 -12 -25 -27z"/>
<path d="M1728 5963 c-49 -26 -88 -51 -88 -55 0 -5 30 -63 66 -128 l66 -119
39 19 c21 11 39 22 39 24 0 2 -11 24 -25 47 -14 24 -25 47 -25 52 0 4 20 17
45 29 48 23 51 28 34 59 -10 19 -11 19 -60 -8 -42 -24 -51 -26 -59 -13 -17 26
-11 36 28 54 65 30 75 41 60 65 -7 12 -17 21 -23 21 -5 0 -49 -21 -97 -47z"/>
<path d="M4503 5821 c-40 -65 -73 -121 -73 -124 0 -8 55 -37 69 -37 9 0 151
219 151 233 0 7 -60 47 -70 47 -3 0 -38 -53 -77 -119z"/>
<path d="M2830 5905 c-214 -26 -387 -66 -575 -133 -142 -51 -226 -89 -355
-163 -158 -90 -237 -142 -325 -213 -27 -23 -59 -48 -69 -56 -11 -8 -54 -46
-95 -85 -172 -161 -291 -301 -405 -474 -90 -138 -99 -154 -160 -276 -206 -415
-299 -844 -282 -1305 14 -404 107 -765 288 -1125 46 -91 180 -313 197 -325 4
-3 24 -30 46 -60 65 -91 134 -169 255 -290 143 -143 211 -199 370 -305 181
-121 325 -193 577 -289 71 -27 272 -77 388 -98 162 -28 539 -36 700 -14 419
58 787 201 1112 433 162 116 215 160 346 293 409 416 649 899 743 1500 28 177
25 607 -5 785 -50 296 -123 531 -240 770 -72 146 -199 356 -266 437 -123 152
-188 224 -279 311 -270 259 -604 461 -941 570 -343 112 -701 151 -1025 112z
m530 -50 c402 -49 726 -169 1060 -390 480 -318 839 -797 1019 -1359 52 -162
78 -283 106 -490 20 -146 20 -494 0 -644 -56 -421 -197 -802 -422 -1140 -72
-107 -89 -131 -186 -247 -102 -122 -236 -246 -428 -397 -166 -130 -610 -351
-642 -319 -7 7 -4 8 10 5 11 -3 25 2 34 12 12 15 12 16 -9 10 -13 -4 -22 -3
-22 3 0 15 34 18 45 4 6 -8 19 -10 35 -6 l25 7 -25 8 c-23 7 -23 7 4 4 16 -2
37 1 47 7 16 10 16 12 1 24 -15 12 -14 13 6 3 24 -12 62 -5 62 10 0 5 -7 7
-15 4 -8 -4 -15 -1 -15 5 0 6 12 11 26 11 15 0 23 -4 19 -10 -4 -6 23 4 59 22
36 17 63 35 60 39 -2 4 6 9 18 11 21 3 21 4 -5 16 -18 7 -26 8 -22 1 4 -6 1
-10 -6 -8 -26 3 -37 -1 -42 -15 -4 -11 -1 -13 10 -9 11 4 14 3 9 -5 -9 -15
-66 -45 -73 -39 -2 3 5 10 16 17 12 6 21 15 21 21 0 6 -17 1 -37 -9 -59 -31
-163 -77 -216 -96 -30 -12 -45 -22 -40 -29 5 -8 2 -8 -8 0 -13 10 -19 10 -35
-3 -10 -8 -13 -12 -5 -8 9 5 12 3 7 -4 -4 -7 -13 -12 -21 -12 -8 0 -19 -8 -24
-17 -6 -10 -11 -13 -11 -7 0 27 -60 26 -60 -1 0 -21 -16 -26 -42 -15 -21 10
-20 10 7 5 24 -4 27 -3 13 5 -20 12 -91 3 -83 -11 3 -4 -12 -6 -32 -4 -21 3
-29 2 -18 -1 32 -9 37 -20 11 -20 -15 0 -29 8 -35 20 -12 24 -51 124 -51 131
0 3 13 11 30 17 49 21 216 176 282 262 34 45 70 91 82 104 l20 23 35 -40 c20
-22 43 -41 51 -42 33 -3 59 2 72 14 20 20 66 15 83 -10 18 -26 77 -47 112 -40
15 3 39 -3 57 -13 34 -19 133 -32 142 -19 8 14 21 10 21 -5 0 -8 -7 -12 -16
-9 -13 4 -13 3 -2 -5 11 -8 8 -10 -12 -9 -14 1 -23 5 -21 9 3 4 -20 -9 -51
-29 -30 -20 -52 -40 -48 -46 4 -6 0 -8 -11 -4 -10 4 -24 -1 -35 -12 -11 -11
-23 -16 -28 -13 -4 4 -6 4 -3 0 3 -3 8 -6 11 -5 3 1 14 -5 25 -13 12 -9 15 -9
7 -1 -17 20 6 42 30 29 23 -12 34 -3 18 16 -9 11 -8 14 6 12 10 0 17 5 16 12
-3 13 9 16 20 5 4 -3 -1 -15 -10 -26 -18 -20 -18 -20 11 -2 16 11 24 21 17 23
-6 2 -11 8 -11 13 0 6 6 7 17 1 12 -7 29 -1 67 27 36 26 45 37 33 39 -9 2 -17
7 -17 12 0 5 8 6 17 3 12 -5 15 -2 10 10 -7 18 7 32 24 22 7 -5 4 -14 -7 -26
-9 -10 -13 -19 -7 -19 5 0 17 8 26 18 13 14 14 21 5 30 -9 9 -9 12 1 12 7 0 9
5 6 10 -3 6 -3 10 2 11 4 0 19 2 33 5 l25 4 -22 -19 c-13 -11 -23 -23 -23 -27
0 -4 16 7 35 26 27 27 32 37 24 52 -12 22 -6 23 14 4 12 -12 24 -4 87 60 40
41 69 74 63 74 -6 0 -14 -7 -17 -16 -4 -9 -13 -14 -22 -10 -10 4 -13 2 -8 -6
4 -7 3 -8 -4 -4 -16 9 -3 36 14 29 8 -3 14 -1 14 5 0 5 9 12 20 15 11 3 20 1
20 -5 0 -5 12 5 27 24 15 18 30 35 34 38 3 3 28 33 56 68 35 44 50 70 47 85
-2 12 -2 17 2 10 3 -7 12 -9 20 -6 7 3 11 9 8 14 -3 5 -10 6 -16 3 -8 -5 -9
-1 -5 12 6 15 3 14 -11 -4 -15 -20 -22 -22 -43 -13 -25 10 -144 46 -191 57
-26 6 -28 4 -28 -23 0 -17 -9 -38 -19 -47 -19 -17 -20 -17 -23 16 -3 30 -6 33
-38 36 -19 2 -42 10 -50 17 -8 7 -34 18 -57 24 -24 7 -55 23 -69 36 -20 19
-31 22 -45 15 -24 -13 -26 -13 -32 9 -3 13 -17 22 -40 26 -22 4 -39 15 -47 30
-18 33 -39 38 -68 18 -14 -10 -37 -25 -51 -34 -25 -15 -26 -19 -23 -96 3 -51
0 -83 -7 -87 -6 -4 -11 -17 -11 -30 0 -32 -29 -86 -45 -86 -8 0 -22 -18 -32
-41 l-18 -41 -55 29 c-54 29 -55 30 -63 84 -4 29 -5 81 -2 114 l5 60 -23 -27
c-12 -16 -28 -28 -35 -28 -7 0 -18 -13 -23 -29 -8 -22 -15 -28 -30 -24 -11 3
-19 1 -17 -5 3 -10 -23 -47 -73 -103 -14 -16 -41 -36 -60 -44 -19 -8 -41 -19
-49 -24 -36 -21 -122 -43 -145 -37 -14 4 -40 0 -58 -8 -18 -7 -52 -12 -75 -11
-31 3 -43 -1 -47 -13 -3 -9 -17 -25 -30 -35 -25 -18 -25 -18 -25 6 0 13 15 41
34 62 35 39 41 67 22 95 -17 24 -47 20 -72 -8 -13 -15 -24 -30 -24 -34 0 -15
-48 -77 -81 -105 -19 -17 -55 -42 -80 -56 -47 -25 -47 -25 -68 -6 -12 11 -19
24 -16 30 4 5 -1 9 -9 9 -9 0 -16 6 -16 14 0 15 106 118 160 155 45 30 100
102 100 129 0 33 -12 26 -50 -28 -19 -27 -43 -50 -52 -50 -10 0 -18 -4 -18 -9
0 -18 -32 -21 -61 -6 -16 9 -31 15 -34 15 -3 0 -9 0 -15 0 -5 0 -16 13 -24 29
-20 37 -14 42 94 70 117 31 168 51 175 69 9 24 -14 41 -28 21 -19 -25 -67 -31
-116 -14 -38 13 -47 13 -78 0 -19 -8 -48 -15 -64 -15 -15 0 -34 -8 -41 -18
-38 -53 -106 -67 -144 -31 -28 26 -44 17 -44 -25 0 -23 9 -41 34 -65 29 -29
38 -32 70 -26 43 9 46 -2 8 -38 -24 -23 -37 -27 -89 -27 -40 0 -65 5 -72 14
-7 8 -35 26 -64 41 -102 52 -98 49 -76 63 10 7 19 23 19 37 0 28 -25 45 -65
45 -27 0 -27 1 -11 24 14 23 13 52 -3 66 -4 3 -15 22 -26 42 -25 48 -80 64
-111 33 -9 -8 -24 -15 -35 -15 -11 0 -39 -9 -61 -20 -43 -21 -78 -26 -78 -12
0 5 -12 12 -26 18 -26 9 -26 9 -7 30 12 15 36 23 78 28 79 9 77 9 100 1 15 -5
16 -4 6 3 -11 8 -8 15 18 38 17 16 32 40 33 54 l3 25 -97 -3 c-116 -4 -169 15
-174 62 -2 16 2 26 9 24 7 -1 26 2 44 6 18 4 68 9 112 10 87 4 154 28 159 59
3 16 -2 17 -46 12 -34 -3 -55 -1 -64 7 -33 31 -98 78 -107 78 -6 0 -11 4 -11
10 0 5 -19 21 -41 36 -30 19 -38 29 -30 37 21 21 11 30 -30 23 -39 -6 -42 -5
-125 69 -46 41 -90 75 -97 74 -9 0 -9 -2 1 -6 6 -2 12 -10 12 -16 0 -13 79
-92 119 -119 28 -20 22 -48 -11 -48 -13 0 -32 -3 -44 -6 -28 -7 -50 16 -59 63
-4 21 -14 46 -23 56 -9 11 -22 31 -29 45 -6 15 -12 21 -12 14 -1 -7 -5 -11
-11 -7 -5 3 -7 12 -3 20 3 9 -1 15 -11 15 -22 0 -56 31 -56 52 0 10 -4 18 -9
18 -5 0 -11 14 -13 30 -4 24 -1 30 14 30 11 0 28 -5 39 -10 35 -19 21 8 -38
73 -61 65 -87 74 -123 42 -24 -22 -32 -19 -60 23 -14 20 -55 67 -92 104 -55
53 -67 61 -62 41 7 -27 -7 -43 -40 -43 -20 0 -56 35 -56 55 0 20 -83 116 -114
132 -45 23 -106 103 -106 138 0 7 -7 15 -15 19 -21 8 -19 26 3 26 29 0 106
-66 160 -135 60 -77 107 -119 127 -111 10 4 15 -1 15 -15 0 -11 4 -18 8 -15
21 13 4 69 -43 136 -17 25 -35 57 -39 73 -3 15 -15 36 -26 47 -11 11 -20 27
-20 35 0 9 -7 18 -15 21 -8 4 -15 12 -15 19 0 7 -7 15 -15 18 -17 7 -57 82
-48 91 26 26 78 -14 191 -148 85 -101 88 -104 120 -112 29 -8 36 -1 23 23 -5
10 -12 30 -15 44 -3 14 -27 49 -54 77 -64 68 -123 157 -116 176 3 9 -2 16 -13
19 -17 4 -17 4 0 12 33 14 79 -18 167 -119 107 -122 158 -165 208 -173 33 -6
35 -5 22 9 -9 8 -25 20 -38 27 -12 6 -22 21 -22 33 0 11 -18 47 -40 80 -22 33
-40 67 -40 74 0 8 -8 14 -17 14 -9 0 -14 3 -10 6 5 6 -47 47 -116 91 -46 30
-48 73 -2 73 22 0 54 -19 172 -103 52 -36 64 -35 43 4 -9 15 -7 19 7 17 10 0
31 0 46 0 l29 2 -6 63 c-4 34 -11 112 -16 172 -13 153 -24 223 -38 237 -9 9
-12 3 -12 -30 0 -23 -4 -42 -10 -42 -5 0 -10 2 -10 5 0 18 24 112 31 121 10
12 29 94 32 134 2 22 -2 25 -37 27 -21 1 -46 -2 -55 -7 -12 -8 -9 -9 12 -4 17
4 27 2 27 -5 0 -6 -6 -11 -12 -11 -9 0 -8 -3 2 -10 11 -7 12 -15 4 -37 -11
-33 -44 -44 -44 -15 0 11 -7 22 -15 25 -16 7 -29 -8 -20 -23 3 -5 1 -10 -5
-10 -7 0 -9 12 -4 35 4 22 2 35 -4 35 -45 0 -112 -236 -112 -394 l0 -55 -82
-88 c-261 -281 -375 -367 -456 -344 l-29 9 -7 -227 c-4 -124 -4 -279 0 -344 4
-68 3 -117 -2 -117 -19 0 -33 39 -27 76 4 25 3 35 -5 31 -5 -4 -8 -17 -5 -30
4 -18 2 -17 -11 6 -11 20 -12 34 -5 50 8 19 9 18 4 -8 -4 -22 -3 -26 5 -14 10
17 2 119 -10 119 -15 0 -32 -85 -21 -112 5 -14 7 -29 4 -32 -4 -3 -1 -6 6 -6
8 0 10 -8 6 -22 -4 -14 -3 -18 2 -11 6 8 9 -9 10 -43 1 -31 6 -61 12 -67 15
-15 15 27 1 54 -6 10 -7 19 -2 19 11 0 30 -70 24 -88 -2 -6 -11 -12 -20 -12
-11 0 -13 -3 -6 -8 7 -4 12 -18 12 -32 0 -14 9 -46 21 -70 l22 -45 -5 37 c-6
51 7 48 25 -4 10 -32 11 -42 1 -46 -14 -4 -16 -38 -2 -47 6 -3 10 -16 10 -28
0 -18 2 -19 10 -7 8 12 10 9 10 -11 0 -14 5 -40 11 -58 9 -25 14 -29 25 -20
11 9 14 7 14 -10 0 -13 -4 -19 -11 -16 -5 4 -3 -10 5 -30 9 -21 16 -39 16 -41
0 -2 5 -4 10 -4 6 0 10 7 10 15 0 8 5 15 10 15 15 0 12 -16 -5 -34 -18 -17
-20 -30 -3 -20 8 5 9 2 5 -10 -4 -9 -3 -15 2 -12 5 3 12 -1 15 -10 4 -10 2
-13 -6 -8 -6 4 -9 3 -6 -2 3 -5 18 -31 34 -59 16 -27 29 -56 31 -65 1 -8 11
-22 22 -31 11 -9 17 -19 14 -23 -4 -3 5 -6 20 -6 31 0 42 -14 23 -29 -12 -10
-12 -16 1 -41 17 -34 19 -36 27 -14 4 10 2 13 -7 9 -6 -4 -4 0 6 8 10 8 14 18
9 21 -6 3 11 47 37 98 26 51 76 163 111 248 67 165 117 270 129 270 4 0 15
-26 25 -57 16 -54 29 -69 203 -240 147 -144 184 -186 178 -200 -27 -66 -27
-72 -5 -144 12 -39 26 -99 30 -133 8 -69 12 -77 64 -155 20 -29 36 -64 36 -77
0 -13 11 -33 24 -46 22 -20 26 -37 36 -131 12 -123 12 -277 -1 -277 -5 0 -9 6
-9 14 0 8 -17 25 -38 37 -20 13 -43 28 -51 33 -9 6 -12 5 -7 -3 5 -7 1 -9 -8
-5 -9 3 -13 11 -9 16 4 7 -4 9 -21 6 -20 -4 -24 -2 -16 7 8 10 -2 21 -40 44
-53 33 -65 37 -55 21 3 -5 -2 -10 -12 -10 -15 0 -14 -4 7 -20 14 -11 30 -20
36 -20 6 0 17 -7 24 -16 18 -20 55 -41 45 -24 -5 8 -3 11 6 8 8 -3 13 -13 13
-22 -2 -12 3 -15 18 -10 13 4 18 2 14 -4 -3 -5 5 -17 19 -26 14 -9 25 -12 25
-7 0 6 -8 15 -17 20 -28 16 -5 13 27 -4 31 -16 41 -29 15 -19 -27 11 -16 -5
15 -21 32 -17 41 -19 37 -7 -2 8 6 12 25 12 6 0 3 -6 -8 -14 -10 -8 -16 -18
-12 -22 5 -4 17 1 28 11 11 10 20 13 20 8 0 -6 -7 -14 -16 -17 -9 -4 -15 -9
-12 -12 3 -2 17 0 32 6 18 6 25 6 21 0 -4 -6 6 -10 22 -10 25 -1 26 -2 10 -11
-14 -8 -22 -8 -30 0 -6 6 -18 11 -26 11 -9 0 -1 -8 17 -17 62 -30 25 -24 -44
8 -114 53 -381 221 -446 281 -7 7 -47 42 -88 77 -95 81 -214 204 -292 301 -33
41 -67 84 -76 95 -10 11 -42 58 -73 105 -229 349 -360 697 -420 1125 -19 135
-18 504 3 650 28 197 65 366 113 504 14 41 23 76 20 79 -2 2 3 11 11 19 8 9
13 20 11 27 -2 6 3 17 10 25 8 7 12 20 9 27 -3 8 -1 14 3 14 5 0 12 7 15 16 3
8 2 12 -4 9 -6 -3 -7 1 -4 9 3 9 11 13 17 9 6 -4 8 0 4 11 -8 20 23 87 36 79
6 -3 7 -1 4 5 -8 12 2 44 12 38 3 -2 7 6 7 18 3 45 178 318 309 480 146 183
415 417 620 541 314 190 685 316 1009 342 39 3 73 7 75 9 11 11 342 2 451 -11z
m-733 -4575 c15 -5 47 -14 71 -20 40 -10 42 -13 42 -48 0 -41 23 -82 46 -82
10 0 14 -13 14 -46 0 -28 8 -59 19 -78 10 -17 21 -47 25 -67 4 -21 13 -42 21
-49 8 -6 19 -36 25 -65 10 -47 14 -54 38 -57 24 -3 22 -4 -9 -9 -23 -3 -35 -1
-33 6 2 5 -6 11 -18 12 -34 2 -79 9 -118 17 -19 3 -51 8 -70 10 -35 3 -35 4
-42 63 -3 33 -27 149 -52 257 -25 109 -46 200 -46 203 0 2 13 -5 30 -17 16
-11 42 -25 57 -30z m-212 -140 c3 -11 10 -20 14 -20 11 0 31 -46 31 -70 0 -11
9 -35 20 -55 11 -20 22 -55 24 -78 2 -22 9 -43 15 -45 6 -2 11 -8 11 -13 0
-14 -58 -11 -93 5 -18 8 -40 16 -50 20 -22 7 -32 31 -21 54 9 19 13 63 13 135
0 31 4 47 13 47 9 0 9 3 0 12 -16 16 -15 28 2 28 8 0 18 -9 21 -20z m941 -157
c13 -17 24 -35 24 -39 0 -4 14 -36 31 -71 17 -35 29 -67 26 -69 -8 -8 -166
-21 -175 -14 -7 5 -12 28 -14 68 0 12 -4 25 -9 28 -5 2 -16 22 -25 42 -10 20
-19 40 -21 43 -5 11 39 60 61 69 27 10 69 -14 102 -57z"/>
<path d="M2929 5856 c-3 -3 -36 -8 -74 -10 -40 -3 -72 -11 -77 -18 -6 -10 -8
-10 -8 0 0 6 -7 12 -15 12 -8 0 -15 -4 -15 -8 0 -4 -16 -9 -35 -10 -68 -4 -75
-6 -65 -16 13 -13 13 -26 -1 -26 -5 0 -8 4 -4 9 9 15 -27 22 -60 12 -24 -7
-26 -9 -8 -10 12 -1 24 -5 27 -10 6 -10 -22 -7 -61 4 -14 5 -23 3 -23 -3 0 -6
-13 -10 -29 -10 -39 1 -181 -43 -175 -54 4 -5 0 -9 -7 -7 -28 3 -38 -1 -33
-14 4 -13 -33 -37 -57 -37 -13 0 11 25 31 33 12 4 12 6 1 6 -7 1 -28 -7 -45
-17 -17 -10 -50 -25 -74 -32 -23 -7 -38 -16 -32 -20 19 -12 98 -2 124 16 14 8
29 15 33 15 26 -1 54 13 49 25 -6 14 9 20 17 7 2 -5 2 -2 1 5 -4 15 8 16 23 1
7 -7 27 -3 69 14 l59 25 14 -26 c7 -15 46 -69 85 -120 39 -51 79 -107 88 -125
10 -17 18 -25 18 -17 0 17 47 60 66 60 7 0 14 3 16 8 7 16 96 81 147 107 78
39 87 49 61 75 -11 11 -27 20 -36 20 -8 0 -20 14 -25 30 -6 17 -17 30 -25 30
-11 0 -21 17 -11 21 8 3 259 18 287 17 62 -3 114 -1 135 4 11 3 14 3 8 1 -7
-3 -13 -9 -13 -15 0 -10 55 -7 135 7 l30 6 -30 -15 c-30 -14 -30 -15 20 -10
28 3 64 7 80 9 22 4 26 2 15 -5 -8 -5 -33 -10 -55 -11 -24 -1 -30 -3 -15 -5
45 -7 134 -27 210 -47 41 -11 82 -19 90 -20 8 0 20 -4 27 -9 7 -5 14 -5 18 2
3 5 11 10 17 10 6 0 5 -7 -3 -17 -12 -14 -12 -16 1 -11 9 3 24 0 35 -8 10 -8
24 -14 29 -14 6 0 4 5 -4 10 -13 8 -12 10 3 10 9 0 17 -6 17 -14 0 -9 12 -13
38 -13 20 1 50 -3 67 -7 16 -4 27 -5 24 -2 -9 9 -142 58 -164 60 -11 2 -31 9
-45 16 -21 12 -88 39 -97 40 -2 0 -3 -4 -3 -10 0 -5 18 -14 41 -20 57 -16 45
-20 -19 -8 -45 9 -53 14 -49 29 5 19 -10 25 -56 21 -11 -1 -15 2 -11 9 4 7 1
10 -7 7 -8 -3 -31 1 -53 8 -21 8 -42 12 -46 9 -5 -3 -19 -1 -32 4 -43 16 -100
23 -93 12 3 -6 0 -11 -7 -11 -7 0 -24 -3 -38 -6 -22 -4 -21 -3 5 10 l30 14
-27 3 c-16 1 -40 4 -55 7 -45 7 -368 14 -374 8z"/>
<path d="M3941 5650 c13 -8 18 -37 23 -157 4 -82 9 -166 12 -188 l6 -40 61 -3
c34 -1 74 -5 90 -8 33 -7 94 5 78 15 -10 6 -25 100 -34 206 -1 11 -6 25 -10
32 -11 17 9 26 32 13 23 -12 42 -13 23 -1 -11 7 -10 9 3 14 9 4 13 3 10 -3 -7
-12 28 -46 80 -77 28 -18 41 -21 56 -13 27 15 24 22 -8 17 -16 -2 -22 -2 -15
0 14 5 17 23 3 23 -5 0 -32 16 -59 35 -33 22 -57 32 -68 28 -12 -5 -15 -3 -9
6 6 10 3 11 -15 1 -17 -9 -25 -9 -34 0 -6 6 -6 11 -1 10 27 -6 38 2 17 11 -13
5 -29 6 -35 2 -8 -4 -8 -2 0 9 11 12 9 17 -13 27 -14 6 -23 7 -19 2 9 -15 -13
-24 -42 -16 -24 6 -24 7 -9 24 16 17 15 19 -4 24 -11 3 -18 2 -15 -3 3 -4 -6
-7 -19 -6 -13 0 -22 4 -19 9 2 4 0 7 -6 7 -5 0 -13 -5 -17 -11 -5 -8 -10 -6
-16 5 -5 9 -17 16 -26 16 -15 -1 -15 -1 -1 -10z"/>
<path d="M2085 5610 c11 -5 18 -9 15 -10 -10 -3 -46 -9 -80 -13 -40 -4 -71
-19 -89 -41 -8 -9 -18 -13 -25 -9 -6 3 -6 0 2 -8 18 -19 15 -29 -10 -29 -17 0
-19 3 -9 9 7 5 9 11 5 14 -5 3 -20 -3 -33 -14 l-23 -19 23 0 c19 0 21 -2 9
-10 -20 -13 -53 -13 -45 0 11 17 -1 11 -29 -15 -15 -14 -24 -25 -20 -25 4 0 0
-8 -9 -18 -10 -10 -14 -22 -10 -26 4 -4 0 -4 -9 -1 -9 4 -19 2 -23 -4 -3 -6
-12 -11 -18 -11 -7 0 4 14 23 31 49 43 18 25 -60 -34 -104 -80 -112 -88 -97
-105 10 -13 9 -14 -10 -3 -13 6 -23 8 -23 4 0 -4 -13 -17 -29 -27 -40 -27 -55
-54 -40 -72 9 -11 7 -14 -10 -14 -11 0 -21 -6 -21 -14 0 -8 -7 -17 -16 -20
-25 -9 -25 -8 2 21 13 14 22 28 19 31 -3 3 -6 3 -8 1 -16 -24 -67 -78 -67 -72
0 4 -8 -3 -18 -17 -21 -30 -66 -81 -149 -167 -35 -35 -62 -67 -61 -71 4 -11
-26 -72 -34 -72 -5 0 -8 -5 -8 -11 0 -5 5 -7 12 -3 7 4 8 3 4 -5 -4 -6 -11 -9
-16 -6 -5 3 -12 0 -16 -6 -4 -7 -3 -9 4 -5 6 3 13 2 17 -4 3 -5 1 -11 -4 -11
-6 -1 -15 -2 -21 -3 -18 -2 -87 -116 -70 -116 6 0 9 -10 9 -22 -1 -17 -2 -19
-6 -5 -2 9 -9 17 -14 17 -5 0 -8 -3 -7 -7 1 -5 -6 -21 -17 -37 -21 -31 -29
-60 -14 -50 5 3 9 0 9 -6 0 -6 4 -9 8 -6 9 5 98 158 139 236 12 25 26 44 30
42 13 -6 21 33 10 53 -9 18 -9 19 6 6 12 -9 17 -10 17 -2 0 7 4 9 10 6 6 -4 7
1 3 11 -4 11 -8 13 -11 6 -4 -13 -22 -7 -22 8 0 10 19 8 38 -3 8 -6 15 0 21
16 5 13 16 27 25 30 10 4 13 13 9 23 -4 11 -2 15 4 11 6 -4 16 0 23 8 8 9 8
15 2 15 -6 0 -12 -5 -14 -12 -3 -8 -7 -9 -11 -2 -7 12 32 59 41 49 4 -3 0 -10
-8 -15 -8 -6 -11 -10 -6 -10 6 0 20 9 32 21 19 18 27 19 60 11 22 -6 113 -15
204 -22 191 -13 357 -29 383 -36 25 -8 22 -84 -8 -208 -24 -101 -29 -162 -13
-172 21 -13 50 -103 59 -182 5 -48 18 -116 28 -152 11 -36 22 -92 26 -125 3
-33 13 -92 21 -130 7 -39 14 -84 15 -100 0 -17 3 -47 6 -68 l5 -39 33 49 c18
27 40 55 49 62 9 7 16 22 16 32 0 28 40 106 86 169 89 121 178 265 215 349 21
49 39 93 39 98 0 5 10 39 21 74 23 69 35 174 19 164 -6 -4 -10 4 -10 17 0 17
3 19 9 9 7 -11 9 -11 14 0 4 11 6 11 6 -1 1 -20 114 -60 169 -60 24 0 76 11
115 24 40 13 90 29 112 35 22 6 74 35 115 66 41 30 79 55 85 55 5 0 30 -20 55
-44 181 -175 336 -281 480 -327 98 -32 117 -33 265 -13 l50 6 29 -93 c36 -118
100 -254 162 -345 26 -38 67 -98 91 -134 24 -36 63 -79 86 -97 77 -58 144
-118 157 -139 9 -17 10 -34 1 -73 -6 -29 -11 -68 -11 -88 0 -19 -14 -101 -31
-182 -40 -190 -44 -228 -44 -401 1 -155 20 -276 56 -360 l20 -45 -23 -18 c-13
-11 -43 -37 -67 -58 -41 -38 -42 -40 -15 -33 16 4 26 4 23 0 -11 -11 63 -83
91 -89 84 -18 160 -70 160 -109 0 -10 -9 -26 -20 -35 -24 -21 -25 -46 -5 -103
8 -23 15 -53 15 -66 0 -22 2 -22 59 16 33 22 62 44 66 50 9 14 31 13 47 -3 24
-23 67 -47 84 -47 8 0 21 13 27 30 10 27 14 29 48 24 46 -8 73 6 89 46 10 25
17 30 34 25 12 -3 26 -7 31 -8 6 -2 15 -6 22 -10 7 -4 13 0 16 10 3 10 5 4 6
-14 0 -17 -4 -35 -9 -38 -6 -4 -9 -1 -8 6 2 6 -4 14 -12 17 -8 2 -12 1 -8 -3
4 -5 4 -13 -1 -19 -19 -24 -83 -148 -73 -142 5 3 13 -1 16 -10 9 -22 7 -31 -2
-16 -5 7 -15 10 -23 7 -16 -6 -49 -60 -49 -81 0 -8 -4 -14 -10 -14 -5 0 -17
-14 -26 -31 -8 -17 -11 -28 -6 -25 6 3 12 2 14 -3 1 -5 12 -3 23 6 16 12 16
14 3 10 -27 -10 -28 6 -2 26 23 17 23 17 18 0 -3 -10 12 10 35 45 35 53 39 66
30 84 -7 13 -7 23 -2 27 6 3 13 13 16 21 4 8 4 -1 1 -20 -4 -29 -3 -32 6 -17
7 10 9 29 6 42 -3 13 -1 27 5 30 6 4 14 17 19 29 8 19 9 19 9 -6 1 -19 -4 -28
-14 -28 -16 0 -20 -16 -6 -24 5 -3 16 9 24 27 45 96 66 150 61 158 -10 16 -22
0 -18 -24 4 -20 3 -20 -4 -2 -10 23 7 75 24 75 7 0 15 12 19 28 4 16 10 21 12
14 3 -8 -4 -27 -16 -43 -23 -31 -26 -39 -13 -39 9 0 42 64 42 81 0 6 6 25 14
42 35 84 37 90 26 101 -8 8 -9 6 -4 -9 5 -16 4 -18 -6 -8 -13 12 -4 37 11 28
10 -7 25 27 35 78 9 42 9 58 -1 82 -7 19 -7 19 7 1 10 -13 15 -15 15 -5 1 8 6
28 11 45 5 17 8 47 6 67 -2 21 1 35 5 32 5 -2 11 6 13 20 3 14 1 25 -4 25 -12
0 -1 52 13 60 5 3 11 22 14 40 4 27 3 29 -3 10 -7 -23 -9 -23 -15 -6 -5 11 -2
25 6 35 16 18 28 71 17 71 -4 0 -7 6 -7 13 -1 6 -4 42 -8 80 -6 49 -5 67 4 67
7 0 9 -5 6 -11 -4 -6 -4 -36 0 -67 l8 -57 9 39 c5 24 4 54 -3 79 -8 30 -8 42
0 45 6 2 11 28 11 62 0 44 -4 59 -16 64 -14 5 -16 16 -9 64 4 31 7 73 8 92 2
76 -29 317 -40 307 -2 -3 0 -31 6 -63 9 -49 9 -59 -4 -67 -8 -4 -15 -13 -15
-20 0 -7 4 -6 10 3 15 24 22 5 8 -25 -10 -23 -10 -28 4 -36 12 -7 16 -24 15
-71 0 -43 -3 -55 -8 -38 -3 14 -4 42 -2 63 4 24 2 37 -6 37 -14 0 -5 -195 10
-247 7 -20 6 -60 -1 -115 -6 -45 -9 -106 -8 -135 2 -28 0 -49 -4 -47 -4 3 -6
-18 -4 -45 1 -28 -1 -52 -6 -53 -5 -2 -12 -37 -15 -78 -3 -41 -10 -78 -16 -81
-6 -4 -5 -25 3 -59 9 -38 9 -55 1 -63 -8 -8 -11 -2 -12 24 -1 30 -3 28 -19
-26 -10 -33 -19 -52 -19 -42 -1 15 -5 15 -38 -6 -21 -13 -44 -22 -52 -19 -11
4 -13 -7 -8 -59 3 -35 8 -71 12 -80 10 -26 -15 -35 -34 -13 -9 11 -28 26 -43
34 -18 8 -28 21 -28 35 0 17 -7 24 -28 28 -30 6 -43 26 -62 97 -7 25 -16 54
-20 66 -5 11 -6 44 -4 72 4 42 2 53 -13 60 -10 5 -23 8 -29 5 -6 -2 -17 3 -24
12 -7 8 -20 15 -30 15 -9 0 -29 12 -44 27 -23 22 -29 25 -37 13 -5 -8 -9 -25
-9 -38 0 -33 40 -112 57 -112 32 0 100 -119 143 -249 32 -96 33 -135 5 -111
-20 17 -46 70 -39 81 3 5 -2 16 -10 25 -9 8 -16 23 -16 33 0 10 -12 28 -26 42
-14 13 -33 40 -42 59 -9 19 -38 67 -65 107 -26 39 -47 80 -45 89 2 12 -4 19
-17 19 -42 3 -62 18 -83 61 -12 24 -22 54 -22 65 0 11 -4 18 -9 15 -5 -3 -7
-36 -4 -72 2 -37 2 -73 -1 -80 -7 -19 -46 -5 -58 22 -6 13 -14 21 -19 19 -4
-3 -10 -1 -14 5 -8 13 -25 13 -25 -1 0 -6 9 -24 21 -40 14 -20 22 -51 26 -101
3 -47 11 -77 20 -85 8 -6 12 -16 9 -22 -7 -11 22 -72 78 -165 57 -94 42 -178
-19 -109 -19 22 -24 35 -20 59 5 27 0 37 -30 65 -22 21 -34 41 -32 51 3 9 -3
24 -13 33 -10 9 -20 28 -23 43 -3 15 -19 47 -36 72 -17 25 -31 51 -31 58 0 6
-4 12 -9 12 -5 0 -7 10 -3 22 3 13 1 19 -5 15 -14 -9 -25 160 -12 185 10 18 9
103 -2 138 -2 8 2 14 9 13 8 -2 12 9 12 32 0 19 5 35 11 35 7 0 10 12 7 30 -3
17 -3 30 -2 30 12 0 64 -69 64 -85 1 -11 7 -31 14 -43 l13 -24 17 36 c21 44
30 45 50 4 21 -40 20 -41 -9 -34 -29 7 -28 9 -14 -33 8 -22 16 -30 26 -27 8 3
17 6 19 6 2 0 4 15 4 33 0 17 3 56 6 85 6 46 9 52 30 52 13 0 27 7 32 16 6 10
27 16 63 19 30 2 61 6 70 10 9 3 23 -1 32 -9 11 -12 17 -13 20 -3 3 7 9 0 15
-15 18 -44 32 -42 17 3 -23 64 -20 85 16 99 32 14 69 62 69 91 0 12 -7 15 -23
12 -39 -8 -183 74 -253 142 -99 97 -193 252 -163 271 16 9 72 -29 96 -67 12
-18 37 -51 55 -72 18 -21 51 -61 73 -89 39 -50 144 -126 175 -127 12 0 12 2
-2 13 -25 18 -23 21 21 35 32 9 43 20 60 54 12 24 21 62 21 84 0 39 -2 41 -35
47 -19 4 -40 14 -47 24 -13 17 -76 69 -107 87 -30 18 -67 52 -141 130 -25 27
-67 63 -95 81 -74 47 -106 85 -107 125 -1 22 -11 45 -30 67 -25 30 -28 39 -23
76 6 40 5 43 -32 66 -27 18 -42 37 -51 68 -8 25 -20 42 -29 42 -24 0 -83 31
-83 44 0 6 23 21 51 33 37 17 50 27 47 40 -3 13 -12 17 -33 16 -117 -8 -170
-15 -181 -24 -14 -12 -134 7 -176 28 -15 7 -42 13 -60 13 -18 0 -40 5 -48 10
-20 13 -3 14 190 15 125 0 161 3 185 17 17 9 45 19 62 23 27 5 37 2 57 -20 20
-21 28 -24 44 -16 11 6 22 18 24 28 4 16 -1 18 -35 18 -23 0 -42 6 -45 13 -2
6 -12 12 -21 12 -10 0 -21 3 -25 7 -4 4 -19 9 -33 11 -15 2 -37 14 -49 28 -13
13 -27 25 -31 25 -4 1 -24 3 -43 4 -35 3 -93 11 -160 21 l-34 6 54 19 c77 26
171 24 267 -5 109 -33 131 -38 138 -26 3 5 -1 10 -9 10 -9 0 -16 8 -16 19 0
30 -47 69 -93 76 -23 4 -76 13 -117 22 -41 9 -96 19 -122 23 -47 6 -88 32 -88
55 0 30 -133 60 -335 75 -104 7 -145 16 -145 31 0 5 -18 12 -40 15 -45 7 -48
16 -20 62 22 35 19 55 -5 45 -8 -3 -15 -1 -15 5 0 6 -18 23 -40 40 -22 16 -38
31 -35 33 2 3 -4 5 -13 6 -10 1 -27 -12 -37 -28 -11 -16 -48 -47 -82 -70 -44
-28 -63 -47 -63 -61 0 -18 -4 -20 -37 -15 -42 7 -49 13 -58 48 -6 24 -4 26 24
27 17 0 31 -4 31 -9 0 -19 28 -8 56 24 33 37 177 147 193 147 6 0 11 7 11 15
0 8 -4 15 -10 15 -5 0 -10 7 -10 15 0 9 -11 20 -24 25 -27 10 -44 30 -25 30
10 0 10 3 1 12 -20 20 -38 -6 -25 -34 6 -13 13 -30 16 -38 6 -20 -29 -64 -43
-55 -6 3 -28 8 -50 10 -40 4 -70 -13 -70 -39 0 -8 -6 -19 -14 -26 -8 -6 -12
-18 -9 -26 4 -10 0 -12 -11 -8 -11 4 -19 -1 -24 -16 -8 -21 -8 -21 -20 4 -6
14 -20 26 -30 26 -10 0 -27 7 -38 15 -10 8 -28 15 -40 15 -11 0 -34 11 -50 25
l-29 25 23 6 c33 9 26 48 -9 52 -22 3 -27 -2 -31 -22 -3 -15 -1 -26 3 -26 5 0
9 -7 9 -15 0 -20 -12 -19 -39 4 -26 22 -71 19 -129 -9 -27 -13 -39 -27 -47
-56 -5 -20 -16 -39 -24 -42 -10 -3 -11 2 -6 18 6 19 4 22 -9 17 -9 -4 -16 -1
-16 6 0 7 -7 21 -15 31 -14 18 -14 14 -9 -41 5 -41 1 -94 -11 -158 -17 -94
-18 -96 -43 -93 -44 5 -57 47 -44 133 9 55 8 79 -1 107 l-13 37 -17 -58 c-9
-31 -17 -66 -17 -77 0 -12 -9 -56 -20 -99 -14 -54 -20 -111 -20 -184 l0 -106
-29 32 c-16 18 -34 53 -40 78 -11 43 -31 59 -46 35 -14 -22 -50 -9 -74 25 -13
19 -30 35 -37 35 -8 0 -16 12 -20 28 -13 60 -16 63 -48 47 -39 -21 -42 -20
-79 22 -37 41 -37 52 -1 162 13 41 22 76 19 79 -2 3 9 23 25 45 34 47 37 64
13 84 -10 8 -12 12 -5 8 6 -3 12 -1 12 4 0 27 -52 -9 -76 -52 -9 -16 -16 -16
-62 -6 -29 7 -61 21 -72 31 -11 11 -26 16 -33 12 -6 -4 -3 2 8 13 15 15 25 18
38 11 22 -12 51 -2 41 13 -4 8 0 9 15 4 12 -4 21 -2 21 4 0 6 8 11 18 11 9 0
29 8 44 18 l27 18 -37 1 c-28 0 -32 -1 -17 -7z m2686 -2797 c23 -19 130 -236
148 -299 15 -52 14 -75 -2 -44 -7 13 -28 35 -47 48 -18 12 -44 39 -56 60 -56
91 -64 112 -64 162 0 28 -5 60 -10 71 -14 24 2 25 31 2z"/>
<path d="M2404 5423 c-3 -15 -12 -44 -19 -63 -31 -86 -46 -273 -20 -260 6 3 9
11 9 17 -1 7 2 11 6 8 7 -4 19 13 25 35 0 3 4 14 7 25 4 11 9 41 13 68 6 49
22 60 45 32 17 -21 34 -4 25 24 -3 12 -15 26 -26 31 -10 6 -19 17 -19 24 0 8
-7 16 -15 20 -11 4 -14 13 -9 30 3 13 1 27 -5 30 -6 4 -13 -5 -17 -21z"/>
<path d="M4703 5169 c-8 -8 -6 -16 6 -28 14 -15 17 -15 28 -1 10 12 11 11 7
-12 -2 -15 1 -30 8 -35 7 -4 30 -29 51 -56 21 -26 42 -46 45 -44 9 5 36 -25
40 -43 3 -13 52 -80 80 -109 7 -7 11 -20 8 -27 -3 -9 0 -11 11 -7 11 4 14 2 9
-5 -4 -7 -3 -12 2 -12 5 0 12 -9 15 -21 6 -22 38 -24 43 -1 1 7 0 8 -3 2 -2
-5 -9 -10 -14 -10 -13 0 -11 28 3 32 9 3 9 6 0 12 -7 4 -12 2 -12 -3 0 -6 -5
-11 -11 -11 -5 0 -8 4 -5 9 4 5 0 12 -6 14 -10 4 -10 7 -1 14 9 7 6 18 -14 46
-19 26 -30 34 -38 27 -18 -15 -52 25 -36 44 9 11 6 20 -15 45 -14 17 -33 30
-42 29 -8 -2 -17 3 -20 11 -3 10 0 11 9 5 8 -4 1 8 -16 27 -16 19 -32 31 -34
26 -1 -4 4 -16 14 -27 11 -12 13 -20 6 -25 -6 -3 -11 0 -11 7 0 8 -5 19 -12
26 -6 6 -13 22 -15 34 -5 35 -43 70 -60 56 -11 -8 -12 -7 -7 6 7 19 3 21 -13
5z"/>
<path d="M4216 5138 c-69 -9 -86 -20 -70 -46 8 -11 22 -16 40 -14 60 5 112 4
197 -5 85 -8 90 -10 117 -43 l28 -34 0 52 c1 29 -4 55 -11 59 -7 5 -43 8 -82
9 -38 0 -90 7 -115 15 -33 11 -61 13 -104 7z"/>
<path d="M5060 4738 c-5 -13 -9 -17 -9 -9 -1 8 -4 12 -7 8 -3 -3 3 -18 13 -34
11 -15 23 -35 27 -43 7 -15 22 -41 40 -69 7 -11 10 -11 18 0 6 10 7 7 3 -10
-5 -17 -4 -22 5 -16 9 5 11 4 6 -3 -4 -6 -2 -21 4 -32 20 -38 15 -134 -9 -174
-13 -20 -19 -36 -15 -36 4 0 -1 -9 -12 -21 -18 -20 -18 -21 -1 -34 9 -7 27
-32 40 -55 12 -23 26 -42 31 -42 5 0 23 33 39 73 17 40 32 68 35 61 2 -7 8 -9
14 -6 6 4 8 -2 3 -17 -7 -23 -7 -24 9 -4 18 23 20 17 7 -18 -6 -15 -6 -29 1
-38 8 -11 9 -11 5 3 -3 9 0 19 8 22 10 4 11 -2 4 -26 -11 -40 -3 -50 11 -13 8
22 7 37 -7 71 -10 23 -22 40 -26 37 -5 -3 -7 3 -4 13 6 20 -11 60 -28 66 -5 2
-8 12 -7 23 2 19 2 19 -11 3 -21 -26 -31 -22 -13 4 20 28 20 35 2 35 -8 0 -12
-6 -9 -13 2 -6 -1 -15 -7 -19 -8 -5 -10 2 -8 21 2 17 8 28 16 26 10 -2 10 2 2
18 -6 11 -15 20 -21 20 -6 0 -7 5 -4 10 6 9 -28 77 -45 90 -4 3 -14 19 -22 35
-9 17 -23 45 -33 63 -9 18 -21 29 -27 25 -7 -4 -9 0 -5 10 3 10 4 17 1 17 -2
0 -9 -10 -14 -22z"/>
<path d="M4870 4311 c0 -22 65 -104 121 -151 35 -30 96 -87 136 -127 l73 -72
16 30 c18 35 12 60 -21 93 -13 13 -25 39 -27 57 -2 27 -8 35 -27 37 -15 3 -30
-3 -38 -14 -7 -10 -13 -12 -13 -5 0 16 -27 43 -72 70 -21 12 -38 26 -38 30 0
9 -58 44 -87 53 -13 3 -23 3 -23 -1z"/>
<path d="M4799 4165 c-1 -3 -2 -8 -3 -12 -1 -5 -4 -13 -8 -19 -10 -15 70 -89
187 -174 33 -24 88 -72 123 -108 34 -36 65 -63 67 -60 11 10 27 118 21 135 -6
14 -9 15 -16 3 -7 -11 -21 -2 -63 41 -76 75 -85 82 -174 131 -87 48 -132 69
-134 63z"/>
<path d="M784 4125 c-3 -8 -3 -18 0 -24 3 -5 2 -11 -3 -13 -4 -1 -11 -14 -15
-28 l-7 -25 20 25 21 25 -11 -32 c-6 -18 -15 -31 -21 -30 -6 1 -13 -4 -16 -12
-2 -8 0 -11 6 -8 5 4 12 -2 15 -14 4 -16 2 -19 -13 -14 -13 4 -19 -2 -24 -26
-3 -17 -6 -44 -6 -60 0 -16 -5 -29 -11 -29 -7 0 -9 -11 -5 -30 4 -21 2 -29 -5
-24 -6 4 -9 -1 -8 -12 2 -11 1 -23 -3 -29 -6 -10 -12 -86 -9 -113 0 -7 6 -10
11 -7 7 4 9 -2 5 -17 -3 -12 -10 -43 -15 -68 l-9 -45 4 58 c2 34 0 55 -6 52
-5 -4 -9 -31 -9 -62 0 -46 3 -54 16 -49 12 5 15 -2 12 -37 -3 -44 -21 -55 -25
-15 -2 22 -1 21 6 -2 l9 -25 1 27 c1 34 -17 46 -24 16 -16 -66 -3 -518 15
-518 5 0 11 8 13 18 2 9 3 6 1 -8 -1 -14 -6 -34 -9 -45 -6 -17 -4 -16 13 4 23
29 21 80 -3 93 -17 10 -20 65 -5 88 8 12 10 9 7 -10 -3 -14 -1 -34 4 -45 5
-13 8 0 8 40 1 43 -2 56 -9 45 -7 -11 -9 -7 -5 15 3 17 7 120 9 230 3 110 10
218 15 240 13 50 13 58 2 50 -11 -6 -26 57 -18 77 3 7 6 -2 6 -19 1 -18 6 -33
11 -33 9 0 14 25 12 60 0 8 5 18 11 23 9 6 9 10 0 14 -18 7 -16 24 3 38 9 6
18 27 19 46 2 19 8 47 14 64 7 16 10 37 8 47 -3 11 -1 15 5 12 6 -4 8 2 3 16
-4 14 -3 20 3 16 11 -7 24 47 16 69 -3 8 -11 12 -17 8 -6 -4 -8 0 -4 10 3 10
4 17 1 17 -2 0 -7 -7 -10 -15z"/>
<path d="M2050 3755 c-7 -9 -28 -15 -51 -15 -33 0 -39 -3 -39 -21 0 -12 8 -23
20 -26 14 -4 20 -14 20 -32 -1 -26 -20 -61 -35 -61 -4 0 -13 -7 -20 -17 -10
-13 -32 -16 -118 -18 -58 0 -109 -4 -113 -8 -4 -3 -2 -24 4 -46 8 -32 7 -43
-4 -52 -8 -6 -14 -18 -14 -25 0 -8 -7 -14 -15 -14 -21 0 -20 -1 28 -70 23 -34
52 -78 63 -97 43 -69 47 -70 94 -19 25 27 51 46 64 46 39 0 122 47 146 81 13
19 46 55 73 80 47 42 50 48 49 89 -2 53 -14 68 -55 72 -31 3 -32 5 -47 75 -17
82 -30 102 -50 78z"/>
<path d="M1240 3267 c0 -8 18 -33 40 -58 22 -24 40 -49 40 -55 0 -7 7 -25 15
-40 8 -16 15 -39 15 -50 0 -12 7 -24 15 -28 8 -3 15 -15 15 -28 0 -17 3 -19
12 -10 9 9 23 0 60 -38 27 -28 53 -48 58 -45 5 3 11 -4 15 -15 15 -48 49 5 40
61 -6 32 -11 39 -30 39 -14 0 -25 7 -27 16 -2 9 -23 24 -47 33 -37 13 -50 27
-85 83 -47 77 -82 118 -113 136 -19 10 -23 10 -23 -1z"/>
<path d="M1140 1813 c0 -7 -7 -13 -16 -13 -8 0 -12 -5 -9 -10 5 -8 11 -7 20 0
11 9 17 5 29 -19 12 -22 13 -32 4 -37 -7 -5 -8 -3 -3 6 5 9 4 11 -4 6 -6 -4
-9 -12 -5 -17 3 -5 10 -7 15 -4 5 4 9 -2 9 -11 0 -16 1 -16 15 2 16 21 20 12
6 -14 -13 -24 21 -66 39 -49 10 10 11 7 6 -13 -3 -14 -3 -19 0 -12 3 6 10 12
15 12 6 0 5 -9 -2 -21 -6 -12 -7 -19 -2 -16 4 3 14 -1 21 -9 7 -8 10 -14 6
-14 -4 0 7 -14 25 -30 17 -17 31 -35 31 -41 0 -5 5 -7 10 -4 6 3 10 0 10 -6 0
-23 71 -88 88 -81 11 4 14 1 9 -10 -7 -19 22 -47 42 -40 8 3 11 0 7 -7 -4 -6
0 -18 8 -27 9 -8 16 -13 16 -9 0 4 7 -1 16 -10 10 -9 25 -13 38 -10 20 6 20 5
2 -9 -18 -15 -18 -16 8 -27 14 -7 26 -15 26 -19 0 -4 15 -19 34 -33 l34 -26
18 20 c10 11 14 19 9 17 -6 -2 -20 7 -32 19 -14 14 -29 20 -40 17 -12 -4 -14
-3 -6 3 9 7 0 19 -32 46 -25 21 -45 34 -45 28 0 -5 6 -12 13 -14 7 -4 8 -6 1
-6 -6 -1 -17 6 -24 14 -7 8 -9 15 -5 15 5 0 0 9 -9 19 -10 11 -24 17 -32 14
-9 -3 -12 0 -9 9 8 20 -91 112 -111 104 -13 -5 -14 -4 -5 7 8 11 6 18 -9 32
-11 10 -20 14 -20 10 0 -4 -9 0 -20 10 -11 10 -20 23 -20 28 0 6 6 2 14 -9 8
-10 17 -17 19 -14 3 3 -16 29 -43 58 -33 36 -52 50 -64 46 -9 -3 -16 -1 -16 5
0 6 5 11 10 11 16 0 11 16 -14 43 -13 14 -21 29 -17 33 3 4 0 4 -6 0 -8 -4
-13 -2 -13 6 -1 17 -39 67 -40 51z"/>
<path d="M1478 5810 c-137 -43 -159 -196 -39 -277 59 -40 129 -26 199 40 28
27 32 37 32 82 0 42 -6 60 -30 93 -16 23 -37 45 -47 51 -29 15 -86 21 -115 11z
m74 -97 c47 -51 48 -101 3 -121 -33 -15 -69 1 -95 43 -24 39 -25 63 -3 87 24
27 65 23 95 -9z"/>
<path d="M4679 5724 c-68 -42 -128 -79 -132 -84 -5 -4 8 -18 29 -30 31 -20 40
-21 56 -11 17 10 26 8 60 -14 32 -21 39 -31 36 -53 -2 -21 5 -33 31 -55 19
-15 35 -26 36 -25 2 2 22 66 45 143 27 88 39 144 34 153 -5 7 -23 22 -40 32
l-30 20 -125 -76z"/>
<path d="M4926 5538 c-53 -56 -96 -107 -95 -113 0 -9 143 -136 161 -143 5 -2
18 7 29 19 l20 24 -50 48 -51 49 70 75 c38 41 70 78 70 82 0 4 -13 20 -29 35
l-28 27 -97 -103z"/>
<path d="M1092 5507 l-22 -23 55 -54 c30 -30 53 -55 51 -57 -2 -2 -45 4 -95
13 l-92 18 -30 -30 -30 -30 100 -97 c55 -53 104 -97 109 -97 5 0 19 11 32 25
l24 25 -54 55 c-30 30 -51 55 -46 55 4 0 49 -7 98 -16 l90 -17 29 30 30 29
-100 97 c-55 53 -106 97 -114 97 -7 0 -23 -10 -35 -23z"/>
<path d="M5259 5262 c-41 -21 -58 -38 -77 -74 -31 -60 -24 -96 30 -154 44 -48
86 -62 130 -45 27 10 27 11 13 43 -12 30 -17 33 -49 30 -28 -3 -38 1 -51 22
-21 31 -13 57 26 91 33 27 86 34 107 13 7 -7 12 -27 12 -44 0 -24 7 -38 29
-53 l28 -20 12 25 c15 33 14 59 -3 92 -27 52 -96 102 -141 102 -7 0 -37 -13
-66 -28z"/>
<path d="M823 5201 c-133 -81 -97 -257 59 -286 67 -13 145 46 168 126 32 112
-125 222 -227 160z m109 -86 c45 -30 55 -58 34 -90 -21 -32 -49 -39 -85 -21
-28 15 -71 61 -71 76 0 19 44 60 63 60 12 0 39 -11 59 -25z"/>
<path d="M5458 4951 c-75 -14 -139 -29 -143 -33 -4 -4 3 -21 15 -38 17 -25 28
-31 47 -27 20 4 29 -3 50 -36 22 -35 23 -43 12 -63 -10 -20 -9 -29 7 -59 10
-19 21 -35 24 -35 10 0 190 228 190 240 0 17 -44 80 -55 79 -5 -1 -72 -13
-147 -28z"/>
<path d="M620 4925 c-12 -20 -21 -37 -19 -39 2 -2 58 -35 124 -74 l120 -71 22
27 c13 15 23 32 23 38 0 8 -203 137 -241 152 -4 2 -17 -13 -29 -33z"/>
<path d="M495 4711 c-33 -63 -61 -118 -63 -121 -1 -3 11 -11 28 -18 31 -14 50
-10 50 11 0 7 7 21 15 31 14 18 18 17 111 -25 l96 -44 19 24 c34 42 25 53 -76
100 -52 24 -95 45 -95 48 0 2 9 21 19 42 l20 38 -33 15 -32 16 -59 -117z"/>
<path d="M5609 4689 l-126 -61 18 -39 c21 -42 25 -42 99 -4 47 24 50 -4 6 -65
-20 -27 -36 -54 -36 -60 0 -15 33 -80 41 -80 4 0 25 27 46 59 26 42 43 58 53
54 45 -18 79 -15 104 11 14 14 26 33 26 44 0 23 -86 202 -97 201 -4 0 -65 -27
-134 -60z"/>
<path d="M368 4434 l-16 -47 26 -22 c15 -12 67 -57 116 -98 50 -42 93 -74 97
-71 4 2 13 20 19 40 11 32 10 37 -8 50 -20 14 -20 16 -4 59 14 38 20 45 44 45
22 0 31 7 43 36 8 20 15 40 15 45 0 5 -71 9 -158 9 l-157 0 -17 -46z"/>
<path d="M5860 4420 c-14 -5 -71 -23 -127 -41 -57 -18 -103 -37 -103 -43 0 -7
15 -57 34 -111 32 -96 34 -100 61 -98 15 1 29 4 32 7 2 2 -6 34 -18 70 -24 68
-21 81 15 88 16 2 23 -9 40 -60 19 -59 22 -63 46 -57 14 4 27 8 29 10 2 2 -6
32 -18 66 -16 49 -18 65 -8 71 25 16 34 6 56 -62 20 -64 25 -70 44 -64 12 3
25 9 29 13 10 9 -64 221 -77 220 -5 0 -21 -4 -35 -9z"/>
<path d="M284 4188 c-5 -18 -9 -37 -9 -42 0 -5 64 -26 142 -46 l141 -37 11 41
c5 22 9 42 7 44 -4 4 -263 72 -275 72 -5 0 -13 -15 -17 -32z"/>
<path d="M278 4040 c-71 -38 -90 -161 -33 -220 46 -48 136 -63 199 -34 42 20
76 84 76 143 0 34 -6 49 -29 72 -37 37 -47 36 -67 -2 -15 -29 -15 -32 5 -50
24 -23 27 -47 8 -74 -11 -15 -23 -17 -66 -13 -85 8 -116 56 -66 102 18 17 25
34 25 60 0 41 -2 42 -52 16z"/>
<path d="M5867 3957 c-91 -16 -116 -24 -112 -35 3 -7 5 -27 5 -44 0 -33 -2
-33 102 -12 26 5 27 3 33 -51 7 -53 9 -56 34 -53 25 3 26 5 23 61 -2 32 1 57
7 57 5 0 16 3 24 6 11 4 16 -6 21 -43 11 -75 15 -83 42 -83 14 0 27 6 29 13 2
6 -4 55 -13 107 -17 95 -17 95 -47 96 -16 1 -83 -8 -148 -19z"/>
<path d="M5794 3708 c3 -13 6 -33 6 -45 0 -16 6 -23 19 -23 25 0 28 -6 32 -60
3 -39 1 -46 -19 -55 -18 -8 -22 -18 -22 -52 0 -24 4 -43 8 -43 7 0 86 33 235
98 46 21 47 22 47 66 0 25 -5 48 -10 51 -12 7 -280 85 -294 85 -4 0 -6 -10 -2
-22z"/>
<path d="M265 3713 c-59 -16 -105 -85 -105 -157 0 -72 75 -136 158 -136 70 0
110 22 134 76 35 80 13 165 -52 199 -33 17 -104 27 -135 18z m100 -97 c29 -12
35 -20 35 -45 0 -43 -23 -61 -81 -61 -54 0 -89 24 -89 60 0 52 66 74 135 46z"/>
<path d="M5881 3393 c-48 -24 -71 -67 -71 -133 1 -59 12 -82 57 -112 36 -23
40 -23 47 6 3 13 8 31 11 38 4 9 -4 19 -20 26 -20 9 -25 19 -25 46 0 43 20 56
82 56 74 0 109 -50 66 -93 -20 -20 -22 -28 -15 -60 9 -36 9 -36 37 -22 46 24
60 53 60 121 0 48 -5 67 -22 89 -42 54 -139 71 -207 38z"/>
<path d="M296 3339 c-14 -17 -29 -48 -32 -70 -8 -46 -26 -75 -42 -65 -17 10
-15 56 3 62 10 4 15 20 15 50 0 24 -2 44 -5 44 -4 0 -19 -7 -35 -15 -80 -42
-50 -225 37 -225 46 0 71 25 89 88 18 64 39 88 61 71 21 -18 15 -56 -11 -76
-19 -15 -23 -25 -19 -56 5 -33 8 -37 27 -31 11 3 32 17 46 30 22 22 25 33 25
95 0 67 -2 72 -33 100 -45 40 -91 40 -126 -2z"/>
<path d="M5800 3042 c0 -40 0 -41 43 -47 23 -3 89 -7 147 -8 l105 -2 3 34 c2
18 0 37 -5 41 -4 5 -72 11 -150 15 l-143 8 0 -41z"/>
<path d="M334 3058 c-27 -13 -44 -49 -51 -111 -6 -50 -27 -72 -44 -46 -13 21
-11 36 7 53 12 12 14 26 9 56 -6 37 -8 39 -28 28 -36 -19 -46 -40 -47 -99 0
-76 30 -123 82 -127 26 -2 43 3 57 17 20 20 41 79 41 118 0 27 32 47 48 31 19
-19 14 -66 -8 -78 -15 -8 -19 -17 -14 -38 12 -54 11 -54 44 -37 39 20 50 43
50 105 0 106 -69 166 -146 128z"/>
<path d="M5785 2908 c-14 -62 -33 -193 -29 -200 3 -4 18 -8 34 -8 31 0 35 6
46 83 4 29 11 47 19 47 8 0 57 -7 110 -16 53 -9 98 -15 100 -13 2 2 5 22 7 44
l3 39 -100 17 c-197 32 -184 32 -190 7z"/>
<path d="M367 2727 c-64 -40 -122 -78 -127 -83 -7 -7 -6 -25 3 -54 l13 -45
119 -17 c66 -9 135 -17 154 -18 32 0 33 1 27 31 -3 17 -6 35 -6 40 0 4 -12 9
-27 11 -25 3 -29 9 -37 52 -9 45 -8 51 11 63 18 12 20 18 11 53 -6 22 -13 40
-17 40 -3 0 -59 -33 -124 -73z"/>
<path d="M5737 2653 c-3 -4 -8 -24 -12 -43 l-6 -35 140 -36 141 -36 12 38 c6
22 9 41 6 44 -3 3 -56 19 -119 35 -63 17 -124 33 -135 36 -12 3 -24 2 -27 -3z"/>
<path d="M5900 2426 l-12 -44 -106 34 c-58 18 -107 32 -107 31 -1 -1 -6 -15
-13 -30 -7 -15 -12 -34 -12 -41 0 -7 43 -26 105 -45 58 -17 105 -33 105 -35 0
-2 -7 -20 -15 -39 -8 -20 -15 -38 -15 -41 0 -6 62 -27 67 -23 4 5 83 239 83
248 0 5 -53 29 -65 29 -1 0 -8 -20 -15 -44z"/>
<path d="M525 2311 c-75 -19 -123 -59 -131 -113 -14 -86 48 -176 128 -185 52
-6 127 25 158 65 24 30 26 94 5 145 -15 36 -67 87 -90 87 -7 0 -19 2 -27 4 -7
2 -26 1 -43 -3z m87 -98 c10 -9 18 -29 18 -45 0 -60 -122 -94 -156 -43 -21 33
-10 61 34 85 46 24 80 25 104 3z"/>
<path d="M5580 2201 c-7 -17 -10 -35 -8 -42 2 -6 62 -35 133 -64 l129 -53 17
36 c9 21 14 40 10 44 -7 7 -250 108 -261 108 -4 0 -13 -13 -20 -29z"/>
<path d="M5489 2018 c-23 -40 -49 -87 -59 -104 l-18 -31 29 -17 28 -16 36 65
c38 67 49 74 78 53 14 -12 13 -18 -18 -70 l-34 -58 25 -16 c13 -9 26 -15 28
-13 1 2 17 30 35 61 28 51 35 57 52 48 25 -14 25 -15 -16 -84 -20 -32 -35 -59
-33 -60 2 -1 15 -7 29 -13 25 -11 27 -9 82 88 32 54 57 100 57 103 0 5 -244
136 -254 136 -3 0 -24 -33 -47 -72z"/>
<path d="M668 1994 c-27 -13 -48 -28 -48 -32 1 -14 55 -106 65 -109 6 -2 19 3
29 10 16 12 17 17 6 36 -14 27 -2 45 24 35 23 -9 49 -62 42 -88 -6 -26 -73
-66 -109 -66 -42 0 -61 26 -58 80 1 16 -8 35 -24 50 -26 25 -27 25 -42 5 -33
-45 14 -168 78 -201 16 -8 48 -14 72 -14 54 0 129 46 147 90 27 65 -14 166
-85 210 -40 25 -39 25 -97 -6z"/>
<path d="M5390 1813 c-24 -9 -70 -55 -86 -85 -23 -44 -18 -101 11 -128 36 -34
83 -32 130 6 72 56 75 58 88 45 17 -17 -3 -45 -37 -51 -26 -5 -71 -62 -59 -74
10 -10 63 -7 84 5 11 5 33 28 49 51 37 51 41 107 8 138 -34 32 -74 25 -135
-22 -43 -32 -58 -40 -71 -32 -25 16 -25 31 -2 54 15 15 29 20 44 16 19 -5 27
1 42 29 10 19 16 37 13 40 -9 8 -63 15 -79 8z"/>
<path d="M825 1664 c-55 -42 -104 -79 -109 -84 -10 -10 30 -60 47 -60 6 0 34
18 63 40 29 22 55 40 57 40 2 0 -9 -36 -24 -81 -16 -44 -29 -86 -29 -92 0 -7
11 -25 24 -41 l23 -30 116 85 c64 46 117 86 117 89 0 3 -11 18 -24 34 l-23 30
-59 -42 c-32 -23 -60 -40 -62 -37 -2 2 8 40 23 83 27 79 27 81 9 111 -10 17
-25 31 -34 30 -8 0 -60 -34 -115 -75z"/>
<path d="M1144 1467 c-6 -7 -52 -48 -102 -92 -51 -44 -92 -84 -92 -89 0 -6 12
-22 26 -37 l27 -28 108 97 c60 53 109 97 109 99 0 3 -59 63 -62 63 -2 -1 -8
-6 -14 -13z"/>
<path d="M5044 1409 l-29 -31 30 -25 c17 -14 54 -47 82 -72 l53 -46 -31 -33
-32 -34 25 -25 25 -25 96 99 96 98 -24 25 -25 24 -34 -33 -35 -34 -79 72 c-43
39 -81 71 -84 71 -2 0 -17 -14 -34 -31z"/>
<path d="M1185 1243 c-71 -36 -132 -67 -135 -70 -3 -3 10 -18 27 -33 l33 -29
86 49 c47 28 90 50 95 50 5 0 -11 -41 -37 -91 l-46 -92 31 -31 c20 -19 34 -27
40 -21 10 11 111 252 111 266 0 10 -61 69 -70 68 -3 0 -63 -30 -135 -66z"/>
<path d="M4880 1253 l-31 -28 37 -43 c51 -60 36 -72 -50 -42 l-65 23 -36 -28
c-20 -15 -33 -31 -28 -35 14 -12 92 -40 112 -40 16 0 18 -6 14 -39 -5 -33 -1
-44 20 -65 39 -39 75 -34 144 19 116 89 109 81 93 102 -33 42 -172 203 -176
203 -2 0 -18 -12 -34 -27z"/>
<path d="M1473 1115 c-61 -26 -69 -81 -20 -145 17 -24 36 -49 42 -56 6 -9 6
-17 -2 -25 -17 -17 -51 6 -55 36 -2 16 -15 34 -35 46 l-32 20 -7 -27 c-11 -42
7 -74 60 -111 54 -37 102 -43 134 -15 38 31 37 63 -2 118 -45 62 -49 71 -42
89 14 37 82 -8 72 -49 -4 -17 2 -26 30 -41 30 -16 37 -17 45 -4 29 46 -19 125
-96 160 -48 22 -51 22 -92 4z"/>
<path d="M4569 1027 c-59 -31 -92 -81 -85 -126 3 -19 31 -72 62 -117 l57 -84
36 22 c20 12 37 22 38 23 2 1 -22 37 -52 81 -30 43 -55 88 -55 100 0 28 19 44
52 44 23 0 36 -13 84 -80 30 -44 59 -80 62 -80 4 0 22 9 40 20 l33 20 -61 89
c-82 118 -122 135 -211 88z"/>
<path d="M1715 967 c-7 -42 -35 -255 -35 -266 0 -4 18 -18 40 -30 35 -19 43
-21 58 -9 48 37 217 182 220 188 1 3 -14 14 -34 23 -33 16 -38 16 -60 2 -21
-14 -27 -13 -64 6 -31 16 -40 27 -40 48 0 20 -9 31 -40 48 l-39 21 -6 -31z"/>
<path d="M4300 875 c-68 -21 -110 -65 -110 -113 0 -57 35 -86 97 -83 27 1 64
3 83 4 39 2 48 -18 18 -37 -13 -8 -23 -8 -38 2 -16 10 -26 9 -55 -5 -41 -20
-43 -26 -13 -47 30 -21 74 -20 123 3 70 32 99 84 70 127 -24 36 -58 46 -121
35 -64 -12 -86 -6 -82 23 4 30 52 45 76 23 17 -15 20 -15 50 3 40 25 40 35 0
60 -38 23 -39 23 -98 5z"/>
<path d="M2020 806 c-12 -33 -91 -219 -96 -228 -5 -7 81 -48 100 -48 7 0 34
29 61 65 27 35 51 62 53 60 3 -3 -1 -39 -7 -81 -7 -42 -9 -80 -4 -84 17 -15
96 -41 103 -33 9 10 110 241 110 252 0 4 -15 12 -33 18 l-34 10 -38 -89 c-20
-49 -39 -87 -41 -86 -2 2 3 46 11 98 8 52 11 98 7 102 -4 3 -19 9 -33 13 -23
6 -32 -2 -83 -70 -32 -42 -60 -74 -63 -72 -2 2 12 41 32 87 20 46 34 84 33 85
-11 9 -49 25 -58 25 -6 0 -15 -11 -20 -24z"/>
<path d="M4003 746 c-17 -6 -34 -14 -37 -17 -4 -3 10 -50 29 -103 19 -53 35
-98 35 -100 0 -2 -18 -8 -40 -15 -41 -12 -48 -27 -30 -61 9 -18 16 -17 127 21
65 21 123 41 130 44 9 3 10 12 1 35 -8 26 -15 31 -32 26 -74 -22 -68 -26 -105
78 -18 53 -36 98 -40 100 -3 2 -20 -2 -38 -8z"/>
</g>
</svg>
